<svg width="67" height="67" viewBox="0 0 67 67" fill="none" xmlns="http://www.w3.org/2000/svg">
<path d="M47.7551 47.7375H31.0051V25.0683L45.4882 33.0025L47.7551 47.7375Z" fill="#2F2E41"/>
<path d="M34.0994 43.7365C40.1054 43.7365 44.9742 38.8677 44.9742 32.8618C44.9742 26.8558 40.1054 21.987 34.0994 21.987C28.0934 21.987 23.2246 26.8558 23.2246 32.8618C23.2246 38.8677 28.0934 43.7365 34.0994 43.7365Z" fill="#FFB6B6"/>
<path d="M27.8566 45.3446L27.3653 40.3784L37.1761 38.5439L42.9693 52.6491L32.8941 64.2356L25.7156 50.1304L27.8566 45.3446Z" fill="#FFB6B6"/>
<path d="M57.5594 56.8102C57.4373 56.9374 57.3126 57.0633 57.1879 57.188C56.7925 57.5835 56.3895 57.9676 55.9776 58.3404C49.8066 63.9371 41.8887 67 33.4999 67C25.7659 67 18.4324 64.3968 12.4994 59.6048C12.4956 59.6023 12.4931 59.5998 12.4893 59.596C12.3093 59.4512 12.1317 59.3038 11.9541 59.1539C11.9856 59.0633 12.0196 58.9739 12.0536 58.8857C13.9616 53.9149 17.7297 51.483 20.0168 50.4188C21.1502 49.8911 21.9197 49.6984 21.9197 49.6984L24.6048 44.8623L26.4951 48.3886L27.888 50.988L33.6032 61.6513L38.5337 49.3747L40.0614 45.5688L40.453 44.594L42.3157 46.0436L44.0788 47.4151L47.6291 48.1984L50.5093 48.8344L54.421 49.6984C56.0028 50.9867 56.965 53.4375 57.5028 56.4828C57.5229 56.5911 57.5418 56.7006 57.5594 56.8102Z" fill="#BEA7E5"/>
<path d="M28.3793 20.5034C29.7039 18.2783 32.1368 16.7516 34.7166 16.5266C37.2963 16.3016 39.9568 17.384 41.6466 19.3462C42.6536 20.5154 43.3139 21.9474 44.2955 23.1381C46.4078 25.7004 50.0096 27.1986 50.9324 30.3885C51.3351 31.7806 51.1344 33.2667 50.9307 34.7014C50.756 35.9311 50.5814 37.1607 50.4068 38.3904C50.2709 39.3474 50.1406 40.3563 50.4994 41.2538C50.9204 42.3067 51.9279 42.9964 52.5792 43.9246C53.6876 45.5041 53.6066 47.8166 52.3904 49.3146C51.8629 49.9643 51.1637 50.4542 50.6107 51.0823C50.0577 51.7104 49.6476 52.5691 49.8792 53.3732C50.3228 54.9136 52.7386 55.283 53.0035 56.864C53.139 57.6723 52.5807 58.4795 51.8492 58.8491C51.1177 59.2188 50.2566 59.2295 49.443 59.1306C46.3507 58.7548 43.4877 56.8226 41.9821 54.0956C40.4766 51.3686 40.367 47.9163 41.6964 45.0992C42.7884 42.7855 44.8179 40.741 44.7958 38.1827C44.7837 36.7889 44.1445 35.4871 43.5193 34.2414C42.2399 31.6916 40.9604 29.1419 39.681 26.5921C38.9956 25.2263 38.2002 23.7545 36.7893 23.1678C35.6988 22.7143 34.4615 22.8902 33.2951 23.0756C32.1288 23.2611 30.8933 23.4417 29.7995 22.9961C28.7058 22.5505 27.8794 21.2266 28.4005 20.1668" fill="#2F2E41"/>
<path d="M30.2848 20.6196C28.1838 19.928 25.8269 21.0382 24.4045 22.7322C22.9821 24.4261 22.2922 26.5993 21.6349 28.7113C21.2584 29.921 20.8819 31.1308 20.5054 32.3405C20.1512 33.4786 19.797 34.6166 19.4428 35.7546C19.0262 37.0932 18.6063 38.5153 18.9481 39.8748C19.1953 40.8578 19.8313 41.7502 19.845 42.7637C19.8593 43.8223 19.1964 44.7516 18.6154 45.6367C18.0344 46.5217 17.489 47.5733 17.7658 48.5951C18.1869 50.1495 20.3479 51.0038 20.2294 52.6098C20.1899 53.1457 19.8799 53.6415 19.8856 54.1789C19.8927 54.8626 20.428 55.4534 21.0552 55.7258C21.6824 55.9983 22.3879 56.0131 23.0716 56.001C25.1686 55.9642 27.2619 55.7151 29.3091 55.2589C30.0967 55.0834 30.8977 54.8682 31.5533 54.3977C32.2089 53.9273 32.698 53.1478 32.6127 52.3454C32.4797 51.095 31.1353 50.3856 30.4568 49.3269C29.7904 48.287 29.8059 46.9693 29.5185 45.7681C29.1236 44.1172 28.1483 42.676 27.4161 41.1446C24.6634 35.3871 25.627 28.0484 29.7727 23.1967C30.1393 22.7678 30.5397 22.3362 30.6927 21.7931C30.8456 21.25 30.6484 20.558 30.1171 20.368" fill="#2F2E41"/>
<circle cx="13.5" cy="55.5" r="5.5" fill="#1EC625"/>
</svg>
